<svg width="24" height="25" viewBox="0 0 24 25" fill="none" xmlns="http://www.w3.org/2000/svg">
<path d="M5.14307 7.50363H12.0002V9.21791H5.14307V7.50363ZM5.14307 4.07506H15.4288V5.78934H5.14307V4.07506ZM5.14307 0.646484H15.4288V2.36077H5.14307V0.646484Z" fill="#333333"/>
<path d="M2.32371 22.9322L7.15029 14.3642L13.5223 19.9271C13.7149 20.0985 13.9437 20.2242 14.1917 20.2949C14.4396 20.3656 14.7003 20.3795 14.9544 20.3355C15.2084 20.2916 15.4493 20.1908 15.659 20.0408C15.8687 19.8909 16.0419 19.6955 16.1657 19.4693L22.14 10.5525L20.7163 9.59763L14.7163 18.5531L14.6563 18.6413L8.28343 13.0785C8.09087 12.9081 7.86249 12.7831 7.61515 12.7127C7.36782 12.6424 7.10784 12.6285 6.85442 12.6721C6.601 12.7157 6.36062 12.8157 6.15101 12.9647C5.94141 13.1136 5.76795 13.3078 5.64343 13.5328L1.71429 20.5176V0.646484H0V22.9322C0.000453837 23.3867 0.181211 23.8225 0.502604 24.1439C0.823996 24.4653 1.25977 24.646 1.71429 24.6465H24V22.9322H2.32371Z" fill="#333333"/>
</svg>
