<svg width="24" height="27" viewBox="0 0 24 27" fill="none" xmlns="http://www.w3.org/2000/svg">
<path d="M2.66667 26.7428C1.93334 26.7428 1.30534 26.4815 0.782669 25.9588C0.260002 25.4362 -0.000886625 24.8086 2.26372e-06 24.0762V5.4095C2.26372e-06 4.67617 0.261336 4.04817 0.784002 3.5255C1.30667 3.00284 1.93422 2.74195 2.66667 2.74284H4V0.0761719H6.66667V2.74284H17.3333V0.0761719H20V2.74284H21.3333C22.0667 2.74284 22.6947 3.00417 23.2173 3.52684C23.74 4.0495 24.0009 4.67706 24 5.4095V24.0762C24 24.8095 23.7387 25.4375 23.216 25.9602C22.6933 26.4828 22.0658 26.7437 21.3333 26.7428H2.66667ZM2.66667 24.0762H21.3333V10.7428H2.66667V24.0762ZM2.66667 8.07617H21.3333V5.4095H2.66667V8.07617ZM12 16.0762C11.6222 16.0762 11.3053 15.9482 11.0493 15.6922C10.7933 15.4362 10.6658 15.1197 10.6667 14.7428C10.6667 14.3651 10.7947 14.0482 11.0507 13.7922C11.3067 13.5362 11.6231 13.4086 12 13.4095C12.3778 13.4095 12.6947 13.5375 12.9507 13.7935C13.2067 14.0495 13.3342 14.3659 13.3333 14.7428C13.3333 15.1206 13.2053 15.4375 12.9493 15.6935C12.6933 15.9495 12.3769 16.0771 12 16.0762ZM6.66667 16.0762C6.28889 16.0762 5.972 15.9482 5.716 15.6922C5.46 15.4362 5.33245 15.1197 5.33333 14.7428C5.33333 14.3651 5.46133 14.0482 5.71733 13.7922C5.97333 13.5362 6.28978 13.4086 6.66667 13.4095C7.04445 13.4095 7.36133 13.5375 7.61733 13.7935C7.87333 14.0495 8.00089 14.3659 8 14.7428C8 15.1206 7.872 15.4375 7.616 15.6935C7.36 15.9495 7.04356 16.0771 6.66667 16.0762ZM17.3333 16.0762C16.9556 16.0762 16.6387 15.9482 16.3827 15.6922C16.1267 15.4362 15.9991 15.1197 16 14.7428C16 14.3651 16.128 14.0482 16.384 13.7922C16.64 13.5362 16.9564 13.4086 17.3333 13.4095C17.7111 13.4095 18.028 13.5375 18.284 13.7935C18.54 14.0495 18.6676 14.3659 18.6667 14.7428C18.6667 15.1206 18.5387 15.4375 18.2827 15.6935C18.0267 15.9495 17.7102 16.0771 17.3333 16.0762ZM12 21.4095C11.6222 21.4095 11.3053 21.2815 11.0493 21.0255C10.7933 20.7695 10.6658 20.4531 10.6667 20.0762C10.6667 19.6984 10.7947 19.3815 11.0507 19.1255C11.3067 18.8695 11.6231 18.7419 12 18.7428C12.3778 18.7428 12.6947 18.8708 12.9507 19.1268C13.2067 19.3828 13.3342 19.6993 13.3333 20.0762C13.3333 20.4539 13.2053 20.7708 12.9493 21.0268C12.6933 21.2828 12.3769 21.4104 12 21.4095ZM6.66667 21.4095C6.28889 21.4095 5.972 21.2815 5.716 21.0255C5.46 20.7695 5.33245 20.4531 5.33333 20.0762C5.33333 19.6984 5.46133 19.3815 5.71733 19.1255C5.97333 18.8695 6.28978 18.7419 6.66667 18.7428C7.04445 18.7428 7.36133 18.8708 7.61733 19.1268C7.87333 19.3828 8.00089 19.6993 8 20.0762C8 20.4539 7.872 20.7708 7.616 21.0268C7.36 21.2828 7.04356 21.4104 6.66667 21.4095ZM17.3333 21.4095C16.9556 21.4095 16.6387 21.2815 16.3827 21.0255C16.1267 20.7695 15.9991 20.4531 16 20.0762C16 19.6984 16.128 19.3815 16.384 19.1255C16.64 18.8695 16.9564 18.7419 17.3333 18.7428C17.7111 18.7428 18.028 18.8708 18.284 19.1268C18.54 19.3828 18.6676 19.6993 18.6667 20.0762C18.6667 20.4539 18.5387 20.7708 18.2827 21.0268C18.0267 21.2828 17.7102 21.4104 17.3333 21.4095Z" fill="#333333"/>
</svg>
