<svg width="24" height="25" viewBox="0 0 24 25" fill="none" xmlns="http://www.w3.org/2000/svg">
<path d="M23 0.214844H1C0.734784 0.214844 0.48043 0.341272 0.292893 0.566316C0.105357 0.791359 0 1.09658 0 1.41484L0 23.0148C0 23.3331 0.105357 23.6383 0.292893 23.8634C0.48043 24.0884 0.734784 24.2148 1 24.2148H23C23.2652 24.2148 23.5196 24.0884 23.7071 23.8634C23.8946 23.6383 24 23.3331 24 23.0148V1.41484C24 1.09658 23.8946 0.791359 23.7071 0.566316C23.5196 0.341272 23.2652 0.214844 23 0.214844ZM22 21.8148H20V20.6148H15V21.8148H2V2.61484H22V21.8148ZM10.29 9.46684C10.29 8.92262 10.4702 8.40069 10.7908 8.01586C11.1115 7.63104 11.5465 7.41484 12 7.41484C12.95 7.41484 13.71 8.33884 13.71 9.46684C13.71 10.6068 12.95 11.5308 12 11.5308C11.05 11.5308 10.29 10.6068 10.29 9.46684ZM5.71 11.3628C5.71 10.5108 6.29 9.81484 7 9.81484C7.34213 9.81484 7.67025 9.97794 7.91217 10.2682C8.15409 10.5585 8.29 10.9523 8.29 11.3628C8.29 12.2148 7.71 12.8988 7 12.8988C6.29 12.8988 5.71 12.2148 5.71 11.3628ZM15.71 11.3628C15.71 10.9523 15.8459 10.5585 16.0878 10.2682C16.3298 9.97794 16.6579 9.81484 17 9.81484C17.3421 9.81484 17.6702 9.97794 17.9122 10.2682C18.1541 10.5585 18.29 10.9523 18.29 11.3628C18.29 12.2148 17.71 12.8988 17 12.8988C16.29 12.8988 15.71 12.2148 15.71 11.3628ZM20 15.9828V17.0148H4V15.9828C4 14.8548 5.55 13.9308 7 13.9308C7.55 13.9308 8.11 14.0628 8.6 14.2908C9.35 13.4628 10.7 12.8988 12 12.8988C13.3 12.8988 14.65 13.4628 15.4 14.2908C15.89 14.0628 16.45 13.9308 17 13.9308C18.45 13.9308 20 14.8548 20 15.9828Z" fill="#333333"/>
</svg>
