<svg width="22" height="29" viewBox="0 0 22 29" fill="none" xmlns="http://www.w3.org/2000/svg">
<path d="M9 21.8613H17V23.8613H9V21.8613ZM5 21.8613H7V23.8613H5V21.8613ZM9 16.8613H17V18.8613H9V16.8613ZM5 16.8613H7V18.8613H5V16.8613ZM9 11.8613H17V13.8613H9V11.8613ZM5 11.8613H7V13.8613H5V11.8613Z" fill="#333333"/>
<path d="M20 3.86133H17V2.86133C17 2.3309 16.7893 1.82219 16.4142 1.44711C16.0391 1.07204 15.5304 0.861328 15 0.861328H7C6.46957 0.861328 5.96086 1.07204 5.58579 1.44711C5.21071 1.82219 5 2.3309 5 2.86133V3.86133H2C1.46957 3.86133 0.960859 4.07204 0.585786 4.44711C0.210714 4.82219 0 5.33089 0 5.86133V26.8613C0 27.3918 0.210714 27.9005 0.585786 28.2755C0.960859 28.6506 1.46957 28.8613 2 28.8613H20C20.5304 28.8613 21.0391 28.6506 21.4142 28.2755C21.7893 27.9005 22 27.3918 22 26.8613V5.86133C22 5.33089 21.7893 4.82219 21.4142 4.44711C21.0391 4.07204 20.5304 3.86133 20 3.86133ZM7 2.86133H15V6.86133H7V2.86133ZM20 26.8613H2V5.86133H5V8.86133H17V5.86133H20V26.8613Z" fill="#333333"/>
</svg>
