<svg width="24" height="24" viewBox="0 0 24 24" fill="none" xmlns="http://www.w3.org/2000/svg">
<path d="M23.3686 4.62832L12.2918 0.936048C12.1023 0.87288 11.8975 0.87288 11.708 0.936048L0.631148 4.62832C0.447348 4.68959 0.287487 4.80715 0.17421 4.96432C0.0609337 5.1215 -1.43563e-05 5.31034 2.53655e-09 5.50409V14.7348C2.53655e-09 14.9796 0.0972516 15.2144 0.270361 15.3875C0.44347 15.5606 0.678256 15.6578 0.923069 15.6578C1.16788 15.6578 1.40267 15.5606 1.57578 15.3875C1.74889 15.2144 1.84614 14.9796 1.84614 14.7348V6.78484L5.72187 8.07599C4.69214 9.73959 4.36469 11.7438 4.81142 13.6487C5.25815 15.5535 6.44255 17.2032 8.10455 18.2355C6.02764 19.0501 4.23227 20.5236 2.91921 22.5382C2.85092 22.6397 2.80348 22.7537 2.77966 22.8737C2.75584 22.9937 2.75611 23.1172 2.78045 23.2371C2.80479 23.357 2.85271 23.4708 2.92144 23.572C2.99016 23.6732 3.07832 23.7598 3.18078 23.8266C3.28325 23.8934 3.39797 23.9392 3.51829 23.9613C3.6386 23.9834 3.76211 23.9814 3.88164 23.9554C4.00116 23.9293 4.11432 23.8798 4.21452 23.8096C4.31473 23.7394 4.39999 23.65 4.46535 23.5466C6.20418 20.879 8.95031 19.3501 11.9999 19.3501C15.0495 19.3501 17.7956 20.879 19.5344 23.5466C19.6698 23.7478 19.879 23.8877 20.1166 23.936C20.3543 23.9842 20.6014 23.937 20.8046 23.8045C21.0077 23.672 21.1505 23.4649 21.2022 23.2279C21.2538 22.9909 21.2102 22.7432 21.0806 22.5382C19.7675 20.5236 17.9652 19.0501 15.8952 18.2355C17.5557 17.2032 18.7389 15.5546 19.1856 13.6512C19.6322 11.7478 19.3058 9.74487 18.2779 8.08175L23.3686 6.38562C23.5525 6.32438 23.7124 6.20684 23.8257 6.04966C23.939 5.89248 24 5.70362 24 5.50985C24 5.31609 23.939 5.12723 23.8257 4.97005C23.7124 4.81287 23.5525 4.69533 23.3686 4.63409V4.62832ZM17.5383 11.9656C17.5386 12.8412 17.3312 13.7043 16.9333 14.4843C16.5353 15.2642 15.9581 15.9387 15.249 16.4524C14.5399 16.966 13.7192 17.3043 12.854 17.4393C11.9889 17.5743 11.1041 17.5023 10.2722 17.2292C9.4403 16.956 8.68501 16.4896 8.0683 15.868C7.4516 15.2464 6.99105 14.4875 6.72445 13.6535C6.45785 12.8195 6.39279 11.9341 6.53462 11.0701C6.67644 10.206 7.0211 9.38794 7.54032 8.6829L11.708 10.0675C11.8975 10.1307 12.1023 10.1307 12.2918 10.0675L16.4595 8.6829C17.1608 9.63366 17.5389 10.7842 17.5383 11.9656ZM11.9999 8.22368L3.84227 5.50409L11.9999 2.78449L20.1575 5.50409L11.9999 8.22368Z" fill="#000000"/>
</svg>
