<svg width="20" height="20" viewBox="0 0 20 20" fill="none" xmlns="http://www.w3.org/2000/svg">
<path d="M2.38268 2.39737L12.8577 0.900707C12.9168 0.892226 12.977 0.896553 13.0343 0.913394C13.0916 0.930235 13.1447 0.959197 13.1898 0.998317C13.2349 1.03744 13.2711 1.0858 13.2959 1.14013C13.3207 1.19446 13.3335 1.25348 13.3335 1.31321V18.6857C13.3335 18.7453 13.3207 18.8043 13.2959 18.8586C13.2712 18.9128 13.2351 18.9611 13.1901 19.0002C13.145 19.0393 13.0921 19.0683 13.0349 19.0852C12.9777 19.1021 12.9176 19.1066 12.8585 19.0982L2.38185 17.6015C2.1832 17.5732 2.00143 17.4742 1.86992 17.3227C1.73842 17.1711 1.66602 16.9772 1.66602 16.7765V3.22237C1.66602 3.02172 1.73842 2.8278 1.86992 2.67624C2.00143 2.52469 2.18403 2.42567 2.38268 2.39737ZM3.33352 3.94487V16.0532L11.6668 17.2449V2.75321L3.33352 3.94487ZM14.1668 15.8324H16.6668V4.16571H14.1668V2.49904H17.5002C17.7212 2.49904 17.9332 2.58684 18.0894 2.74312C18.2457 2.8994 18.3335 3.11136 18.3335 3.33237V16.6657C18.3335 16.8867 18.2457 17.0987 18.0894 17.255C17.9332 17.4112 17.7212 17.499 17.5002 17.499H14.1668V15.8324ZM8.50018 9.99904L10.8335 13.3324H8.83352L7.50018 11.4274L6.16685 13.3324H4.16685L6.50018 9.99904L4.16685 6.66571H6.16685L7.50018 8.57071L8.83352 6.66571H10.8335L8.50018 9.99904Z" fill="white"/>
</svg>
