<svg width="123" height="123" viewBox="0 0 123 123" fill="none" xmlns="http://www.w3.org/2000/svg">
<mask id="mask0_4002_8820" style="mask-type:luminance" maskUnits="userSpaceOnUse" x="36" y="28" width="49" height="46">
<path d="M36.8999 28.8271H84.9519V73.1443H36.8999V28.8271Z" fill="white"/>
</mask>
<g mask="url(#mask0_4002_8820)">
<path fill-rule="evenodd" clip-rule="evenodd" d="M56.0198 30.2457C57.5573 29.354 59.2409 28.9376 60.904 28.9414C62.5683 28.9376 64.2506 29.354 65.7894 30.2457C66.7849 30.8236 67.6408 31.5513 68.3468 32.3893L68.3711 32.4187C68.3954 32.4482 68.4198 32.4764 68.4441 32.5059C68.7773 32.9133 69.0873 33.3553 69.3577 33.8294L83.4937 58.3769C86.1779 63.0419 84.5725 69.0599 79.9203 71.7557C75.2681 74.4476 69.2667 72.8319 66.5773 68.1669L64.2224 64.0746C62.2493 60.6511 59.7483 55.2634 57.1717 52.7086C54.4247 49.9924 50.6514 48.3152 46.4925 48.3152C45.6417 48.3152 44.8051 48.387 43.9876 48.5228L51.4548 35.5565C52.0454 34.5277 52.6104 33.4232 53.3651 32.5059C53.3894 32.4764 53.4138 32.4482 53.4381 32.4187L53.4612 32.3893C54.1684 31.5513 55.0243 30.8236 56.0198 30.2457ZM46.4925 54.0219C51.7443 54.0219 56.0058 58.2949 56.0058 63.5608C56.0058 68.8319 51.7443 73.0984 46.4925 73.0984C41.2406 73.0984 36.9805 68.8319 36.9805 63.5608C36.9805 58.2949 41.2406 54.0219 46.4925 54.0219Z" fill="#3BB2D9"/>
</g>
<path d="M35.0955 78.21C35.0417 78.21 34.9699 78.2458 34.943 78.3163L33.3018 83.6706C33.3018 83.777 33.3914 83.8308 33.4619 83.8308H34.2742C34.346 83.8308 34.4177 83.777 34.4523 83.6706L34.6586 82.9736H36.7189L36.9328 83.6706C36.9687 83.777 37.0404 83.8308 37.1122 83.8308H37.9232C37.995 83.8308 38.0847 83.777 38.0847 83.6706L36.4421 78.3163C36.4152 78.2458 36.3447 78.21 36.2909 78.21H35.0955ZM35.6926 79.6014L36.3973 81.9217H34.9789L35.6926 79.6014Z" fill="#545454"/>
<path d="M41.2153 81.8684C41.2153 82.4834 41.4831 83.903 43.3922 83.903C43.8201 83.903 44.3736 83.8313 44.7836 83.689C44.8554 83.6621 44.8733 83.5904 44.8733 83.5635L44.749 82.787C44.7221 82.7166 44.6683 82.6986 44.6235 82.6986C44.2583 82.796 43.8829 82.8498 43.5792 82.8498C43.027 82.8498 42.3569 82.609 42.3569 81.7608V80.2796C42.3569 79.4327 43.027 79.1919 43.5792 79.1919C43.8829 79.1919 44.2583 79.2457 44.6235 79.343C44.6683 79.343 44.7221 79.3251 44.749 79.2546L44.8733 78.4782C44.8733 78.4513 44.8554 78.3795 44.7836 78.3526C44.3736 78.2104 43.8201 78.1387 43.3922 78.1387C41.4831 78.1387 41.2153 79.557 41.2153 80.1733V81.8684Z" fill="#545454"/>
<path d="M49.7986 78.21C49.7448 78.21 49.6731 78.2458 49.6462 78.3163L48.0049 83.6706C48.0049 83.777 48.0946 83.8308 48.165 83.8308H48.9774C49.0491 83.8308 49.1209 83.777 49.1554 83.6706L49.3617 82.9736H51.422L51.6359 83.6706C51.6718 83.777 51.7436 83.8308 51.8153 83.8308H52.6264C52.6981 83.8308 52.7878 83.777 52.7878 83.6706L51.1452 78.3163C51.1183 78.2458 51.0479 78.21 50.994 78.21H49.7986ZM50.3957 79.6014L51.1004 81.9217H49.682L50.3957 79.6014Z" fill="#545454"/>
<path d="M57.6764 79.2631C57.9621 79.2631 58.6399 79.3336 58.6399 80.2177V81.8231C58.6399 82.7071 57.9621 82.7776 57.6764 82.7776H57.1139V79.2631H57.6764ZM57.7033 83.8308C59.7815 83.8308 59.7905 82.046 59.7905 82.046V79.9947C59.7905 79.9947 59.7815 78.21 57.7033 78.21H56.1235C56.0518 78.21 55.9634 78.2638 55.9634 78.3701V83.6706C55.9634 83.777 56.0518 83.8308 56.1235 83.8308H57.7033Z" fill="#545454"/>
<path d="M64.3405 82.7776V81.5732H66.0894C66.197 81.5732 66.2496 81.4848 66.2496 81.4131V80.6815C66.2496 80.6097 66.197 80.5201 66.0894 80.5201H64.3405V79.2631H66.4994C66.607 79.2631 66.6608 79.1735 66.6608 79.1017V78.3701C66.6608 78.2984 66.607 78.21 66.4994 78.21H63.3501C63.2783 78.21 63.1899 78.2638 63.1899 78.3701V83.6706C63.1899 83.777 63.2783 83.8308 63.3501 83.8308H66.4994C66.607 83.8308 66.6608 83.7411 66.6608 83.6706V82.9391C66.6608 82.8673 66.607 82.7776 66.4994 82.7776H64.3405Z" fill="#545454"/>
<path d="M73.1727 82.6354C73.2624 82.6354 73.2982 82.5636 73.3251 82.5278L74.3335 80.529V83.6706C74.3335 83.777 74.4219 83.8308 74.4936 83.8308H75.3239C75.3944 83.8308 75.4841 83.777 75.4841 83.6706V78.3701C75.4841 78.2638 75.3944 78.21 75.3239 78.21H74.4847C74.4129 78.21 74.3335 78.2727 74.2886 78.3701L72.8165 81.2965L71.3443 78.3701C71.2995 78.2727 71.2188 78.21 71.1483 78.21H70.3091C70.2373 78.21 70.1489 78.2638 70.1489 78.3701V83.6706C70.1489 83.777 70.2373 83.8308 70.3091 83.8308H71.1393C71.2098 83.8308 71.2995 83.777 71.2995 83.6706V80.529L72.3078 82.5278C72.3347 82.5636 72.3706 82.6354 72.459 82.6354H73.1727Z" fill="#545454"/>
<path d="M80.4534 78.21C80.3996 78.21 80.3279 78.2458 80.3009 78.3163L78.6597 83.6706C78.6597 83.777 78.7494 83.8308 78.8198 83.8308H79.6321C79.7039 83.8308 79.7756 83.777 79.8102 83.6706L80.0165 82.9736H82.0768L82.2907 83.6706C82.3266 83.777 82.3984 83.8308 82.4701 83.8308H83.2811C83.3529 83.8308 83.4426 83.777 83.4426 83.6706L81.8 78.3163C81.7731 78.2458 81.7026 78.21 81.6488 78.21H80.4534ZM81.0505 79.6014L81.7552 81.9217H80.3368L81.0505 79.6014Z" fill="#545454"/>
<path d="M86.5107 78.21C86.4044 78.21 86.3506 78.2984 86.3506 78.3701V79.1017C86.3506 79.1735 86.4044 79.2631 86.5107 79.2631H87.76V83.6706C87.76 83.777 87.8496 83.8308 87.9201 83.8308H88.7504C88.8221 83.8308 88.9105 83.777 88.9105 83.6706V79.2631H90.1597C90.2674 79.2631 90.3212 79.1735 90.3212 79.1017V78.3701C90.3212 78.2984 90.2674 78.21 90.1597 78.21H86.5107Z" fill="#545454"/>
<path d="M94.6921 82.7776V81.5732H96.441C96.5486 81.5732 96.6011 81.4848 96.6011 81.4131V80.6815C96.6011 80.6097 96.5486 80.5201 96.441 80.5201H94.6921V79.2631H96.851C96.9586 79.2631 97.0124 79.1735 97.0124 79.1017V78.3701C97.0124 78.2984 96.9586 78.21 96.851 78.21H93.7017C93.6299 78.21 93.5415 78.2638 93.5415 78.3701V83.6706C93.5415 83.777 93.6299 83.8308 93.7017 83.8308H96.851C96.9586 83.8308 97.0124 83.7411 97.0124 83.6706V82.9391C97.0124 82.8673 96.9586 82.7776 96.851 82.7776H94.6921Z" fill="#545454"/>
<mask id="mask1_4002_8820" style="mask-type:luminance" maskUnits="userSpaceOnUse" x="92" y="92" width="8" height="5">
<path d="M92.8242 92.168H99.0562V96.76H92.8242V92.168Z" fill="white"/>
</mask>
<g mask="url(#mask1_4002_8820)">
<mask id="mask2_4002_8820" style="mask-type:luminance" maskUnits="userSpaceOnUse" x="92" y="81" width="22" height="22">
<path d="M113.32 86.865L108.283 102.559L92.5898 97.5199L97.6277 81.8271L113.32 86.865Z" fill="white"/>
</mask>
<g mask="url(#mask2_4002_8820)">
<mask id="mask3_4002_8820" style="mask-type:luminance" maskUnits="userSpaceOnUse" x="92" y="81" width="22" height="22">
<path d="M108.274 102.587L113.312 86.8943L97.6189 81.8564L92.5811 97.5492L108.274 102.587Z" fill="white"/>
</mask>
<g mask="url(#mask3_4002_8820)">
<path d="M98.2739 95.9038C98.2419 95.9204 98.206 95.932 98.1701 95.9384L93.4256 96.734C93.2706 96.7597 93.1156 96.6828 93.0425 96.5431C92.9977 96.4573 92.99 96.3586 93.0195 96.2702C93.0361 96.2164 93.0656 96.1652 93.1092 96.1242L96.5263 92.7737C96.5506 92.7481 96.5814 92.7276 96.6147 92.7096L97.3642 92.3291L99.0234 95.522L98.2739 95.9038Z" fill="#3BB2D9"/>
</g>
</g>
</g>
<mask id="mask4_4002_8820" style="mask-type:luminance" maskUnits="userSpaceOnUse" x="97" y="85" width="15" height="11">
<path d="M97.7441 85.9355H111.848V95.4475H97.7441V85.9355Z" fill="white"/>
</mask>
<g mask="url(#mask4_4002_8820)">
<mask id="mask5_4002_8820" style="mask-type:luminance" maskUnits="userSpaceOnUse" x="92" y="81" width="22" height="22">
<path d="M113.32 86.864L108.283 102.558L92.5898 97.5189L97.6277 81.8262L113.32 86.864Z" fill="white"/>
</mask>
<g mask="url(#mask5_4002_8820)">
<mask id="mask6_4002_8820" style="mask-type:luminance" maskUnits="userSpaceOnUse" x="92" y="81" width="22" height="22">
<path d="M108.274 102.586L113.312 86.8933L97.6189 81.8555L92.5811 97.5482L108.274 102.586Z" fill="white"/>
</mask>
<g mask="url(#mask6_4002_8820)">
<path d="M111.634 87.0959C112.079 87.9479 111.554 89.1562 110.512 89.6853L109.292 90.3054L109.791 91.2638C109.834 91.3484 109.843 91.4458 109.814 91.5367C109.784 91.6277 109.721 91.702 109.636 91.7443L104.18 94.5169C104.003 94.6079 103.784 94.5374 103.693 94.3606C103.647 94.2735 103.641 94.1748 103.669 94.0877C103.697 94.0006 103.76 93.9237 103.848 93.8788L108.982 91.2702L108.649 90.6309L99.6636 95.1973L98.0044 92.0044L106.989 87.4367C106.898 87.2599 106.946 87.1074 107.124 87.0165C107.301 86.9268 107.456 87.1933 107.589 87.2368H107.591L108.831 86.5539C109.91 86.0056 111.176 86.2144 111.634 87.0959Z" fill="#3BB2D9"/>
</g>
</g>
</g>
<mask id="mask7_4002_8820" style="mask-type:luminance" maskUnits="userSpaceOnUse" x="23" y="87" width="70" height="11">
<path d="M23.9438 87.248H92.4959V97.3417H23.9438V87.248Z" fill="white"/>
</mask>
<g mask="url(#mask7_4002_8820)">
<path d="M91.9178 97.1674C87.7127 94.9675 82.8081 94.4614 78.1457 94.3461C73.127 94.2154 68.1212 94.5485 63.1307 95.011C58.0826 95.4889 53.0485 96.0822 47.9863 96.4435C45.4687 96.6177 42.9382 96.7189 40.4064 96.733C38.0323 96.7484 35.6299 96.7625 33.2558 96.4729C30.8688 96.1834 28.4806 95.503 26.6497 93.8387C25.0481 92.3781 23.8898 90.1487 24.3332 87.9347C24.5189 87.0096 25.9488 87.2262 25.9488 88.1525C25.9347 90.1205 26.6919 91.7848 28.1936 93.0289C29.881 94.4319 32.1411 94.9239 34.2436 95.1853C39.0201 95.749 43.8812 95.5607 48.6718 95.2288C58.3965 94.5344 68.093 92.9277 77.8599 93.2749C82.8363 93.4338 87.8703 94.0129 92.2035 96.6754C92.5174 96.8637 92.2458 97.3416 91.9178 97.1674Z" fill="#3BB2D9"/>
</g>
<path d="M90.0294 93.9551C85.768 92.3778 81.3643 92.0012 76.8594 91.9717C76.616 91.9717 76.5302 91.5527 76.8018 91.5232C81.3067 90.8442 85.9973 91.9294 90.1294 93.7667C90.2152 93.8103 90.1447 93.9986 90.0294 93.9551Z" fill="#3BB2D9"/>
<path d="M28.3233 96.4874C26.6781 96.2568 25.1624 95.4599 24.0183 94.2594C23.4327 93.652 22.9318 92.9563 22.5884 92.1901C22.3027 91.5828 21.7735 90.4963 22.2027 89.8749C22.4026 89.5854 22.746 89.5418 23.0035 89.7737C23.4891 90.1927 23.4174 91.1485 23.6185 91.7558C23.8466 92.4502 24.1759 93.1011 24.591 93.6943C25.5199 94.9833 26.8498 95.9237 28.3656 96.3427C28.4655 96.358 28.4232 96.5028 28.3233 96.4874Z" fill="#3BB2D9"/>
<mask id="mask8_4002_8820" style="mask-type:luminance" maskUnits="userSpaceOnUse" x="17" y="80" width="10" height="6">
<path d="M17.0562 80.3604H26.5682V85.6084H17.0562V80.3604Z" fill="white"/>
</mask>
<g mask="url(#mask8_4002_8820)">
<mask id="mask9_4002_8820" style="mask-type:luminance" maskUnits="userSpaceOnUse" x="14" y="74" width="16" height="13">
<path d="M14.1182 75.7058L27.8134 74.208L29.0434 85.4561L15.3494 86.9539L14.1182 75.7058Z" fill="white"/>
</mask>
<g mask="url(#mask9_4002_8820)">
<mask id="mask10_4002_8820" style="mask-type:luminance" maskUnits="userSpaceOnUse" x="14" y="74" width="16" height="13">
<path d="M14.1182 75.7058L27.8134 74.208L29.0434 85.4561L15.3494 86.9539L14.1182 75.7058Z" fill="white"/>
</mask>
<g mask="url(#mask10_4002_8820)">
<path d="M21.8327 81.8374C21.7494 81.8656 21.6636 81.8848 21.5777 81.8951C21.4816 81.9053 21.3843 81.9028 21.2907 81.8899L17.4957 81.3787L17.1421 84.3564C17.1305 84.4563 17.1715 84.5549 17.2497 84.6177C18.2106 85.3814 20.308 85.4634 21.9493 85.284C23.5893 85.1046 25.6175 84.5639 26.3914 83.6094C26.4542 83.5312 26.4721 83.4185 26.4401 83.3237L25.4804 80.5869L21.8327 81.8374Z" fill="#3BB2D9"/>
</g>
</g>
</g>
<mask id="mask11_4002_8820" style="mask-type:luminance" maskUnits="userSpaceOnUse" x="14" y="77" width="15" height="5">
<path d="M14.7598 77.7363H28.5358V81.3443H14.7598V77.7363Z" fill="white"/>
</mask>
<g mask="url(#mask11_4002_8820)">
<mask id="mask12_4002_8820" style="mask-type:luminance" maskUnits="userSpaceOnUse" x="14" y="74" width="16" height="13">
<path d="M14.1177 75.7058L27.813 74.208L29.043 85.4561L15.349 86.9539L14.1177 75.7058Z" fill="white"/>
</mask>
<g mask="url(#mask12_4002_8820)">
<mask id="mask13_4002_8820" style="mask-type:luminance" maskUnits="userSpaceOnUse" x="14" y="74" width="16" height="13">
<path d="M14.1177 75.7058L27.813 74.208L29.043 85.4561L15.349 86.9539L14.1177 75.7058Z" fill="white"/>
</mask>
<g mask="url(#mask13_4002_8820)">
<path d="M27.7117 78.0188L21.2144 77.8535C21.1888 77.8535 21.1619 77.8548 21.135 77.8574C21.1055 77.8599 21.0773 77.8663 21.0492 77.8727L15.3245 79.3744C15.0542 79.4461 14.8722 79.696 14.8876 79.9714C14.9056 80.2482 15.1157 80.4737 15.3924 80.5108L21.3707 81.3167C21.4182 81.3231 21.4668 81.3231 21.5142 81.318C21.5565 81.3142 21.5988 81.3039 21.6411 81.2911L27.8859 79.1476C28.1537 79.0566 28.3177 78.7875 28.2741 78.5108C28.2318 78.234 27.9948 78.0265 27.7117 78.0188Z" fill="#3BB2D9"/>
</g>
</g>
</g>
<mask id="mask14_4002_8820" style="mask-type:luminance" maskUnits="userSpaceOnUse" x="27" y="79" width="2" height="5">
<path d="M27.2241 79.7041H28.5361V83.9681H27.2241V79.7041Z" fill="white"/>
</mask>
<g mask="url(#mask14_4002_8820)">
<mask id="mask15_4002_8820" style="mask-type:luminance" maskUnits="userSpaceOnUse" x="14" y="74" width="16" height="13">
<path d="M14.1182 75.7058L27.8134 74.208L29.0434 85.4561L15.3494 86.9539L14.1182 75.7058Z" fill="white"/>
</mask>
<g mask="url(#mask15_4002_8820)">
<mask id="mask16_4002_8820" style="mask-type:luminance" maskUnits="userSpaceOnUse" x="14" y="74" width="16" height="13">
<path d="M14.1182 75.7058L27.8134 74.208L29.0434 85.4561L15.3494 86.9539L14.1182 75.7058Z" fill="white"/>
</mask>
<g mask="url(#mask16_4002_8820)">
<path d="M27.5317 79.7838C27.3715 79.8018 27.2549 79.9453 27.2716 80.1042L27.6509 83.5661C27.6675 83.725 27.8123 83.8403 27.9724 83.8223C28.1326 83.8044 28.2492 83.6609 28.2325 83.502L27.8533 80.0414C27.8366 79.8812 27.6919 79.7672 27.5317 79.7838Z" fill="#3BB2D9"/>
</g>
</g>
</g>
<mask id="mask17_4002_8820" style="mask-type:luminance" maskUnits="userSpaceOnUse" x="27" y="84" width="2" height="2">
<path d="M27.5518 84.2959H28.5358V85.6079H27.5518V84.2959Z" fill="white"/>
</mask>
<g mask="url(#mask17_4002_8820)">
<mask id="mask18_4002_8820" style="mask-type:luminance" maskUnits="userSpaceOnUse" x="14" y="74" width="16" height="13">
<path d="M14.1177 75.7048L27.813 74.207L29.043 85.4551L15.349 86.9529L14.1177 75.7048Z" fill="white"/>
</mask>
<g mask="url(#mask18_4002_8820)">
<mask id="mask19_4002_8820" style="mask-type:luminance" maskUnits="userSpaceOnUse" x="14" y="74" width="16" height="13">
<path d="M14.1177 75.7048L27.813 74.207L29.043 85.4551L15.349 86.9529L14.1177 75.7048Z" fill="white"/>
</mask>
<g mask="url(#mask19_4002_8820)">
<path d="M28.0361 84.3981C27.8759 84.416 27.7593 84.5595 27.776 84.7184L27.8388 85.295C27.8567 85.4538 28.0015 85.5691 28.1617 85.5525C28.3218 85.5346 28.4384 85.3911 28.4217 85.2322L28.3577 84.6543C28.341 84.4967 28.1962 84.3814 28.0361 84.3981Z" fill="#3BB2D9"/>
</g>
</g>
</g>
</svg>
