<svg width="24" height="23" viewBox="0 0 24 23" fill="none" xmlns="http://www.w3.org/2000/svg">
<mask id="path-1-inside-1_4002_8981" fill="white">
<path d="M24 7.5V15H15V21H1.5V22.5H0V0H1.5V1.5H18V7.5H24ZM1.5 3V7.5H16.5V3H1.5ZM13.5 19.5V15H1.5V19.5H13.5ZM22.5 13.5V9H1.5V13.5H22.5Z"/>
</mask>
<path d="M24 7.5V15H15V21H1.5V22.5H0V0H1.5V1.5H18V7.5H24ZM1.5 3V7.5H16.5V3H1.5ZM13.5 19.5V15H1.5V19.5H13.5ZM22.5 13.5V9H1.5V13.5H22.5Z" fill="#FF6B00" fill-opacity="0.8"/>
<path d="M24 7.5H27V4.5H24V7.5ZM24 15V18H27V15H24ZM15 15V12H12V15H15ZM15 21V24H18V21H15ZM1.5 21V18H-1.5V21H1.5ZM1.5 22.5V25.5H4.5V22.5H1.5ZM0 22.5H-3V25.5H0V22.5ZM0 0V-3H-3V0H0ZM1.5 0H4.5V-3H1.5V0ZM1.5 1.5H-1.5V4.5H1.5V1.5ZM18 1.5H21V-1.5H18V1.5ZM18 7.5H15V10.5H18V7.5ZM1.5 3V0H-1.5V3H1.5ZM1.5 7.5H-1.5V10.5H1.5V7.5ZM16.5 7.5V10.5H19.5V7.5H16.5ZM16.5 3H19.5V0H16.5V3ZM13.5 19.5V22.5H16.5V19.5H13.5ZM13.5 15H16.5V12H13.5V15ZM1.5 15V12H-1.5V15H1.5ZM1.5 19.5H-1.5V22.5H1.5V19.5ZM22.5 13.5V16.5H25.5V13.5H22.5ZM22.5 9H25.5V6H22.5V9ZM1.5 9V6H-1.5V9H1.5ZM1.5 13.5H-1.5V16.5H1.5V13.5ZM21 7.5V15H27V7.5H21ZM24 12H15V18H24V12ZM12 15V21H18V15H12ZM15 18H1.5V24H15V18ZM-1.5 21V22.5H4.5V21H-1.5ZM1.5 19.5H0V25.5H1.5V19.5ZM3 22.5V0H-3V22.5H3ZM0 3H1.5V-3H0V3ZM-1.5 0V1.5H4.5V0H-1.5ZM1.5 4.5H18V-1.5H1.5V4.5ZM15 1.5V7.5H21V1.5H15ZM18 10.5H24V4.5H18V10.5ZM-1.5 3V7.5H4.5V3H-1.5ZM1.5 10.5H16.5V4.5H1.5V10.5ZM19.5 7.5V3H13.5V7.5H19.5ZM16.5 0H1.5V6H16.5V0ZM16.5 19.5V15H10.5V19.5H16.5ZM13.5 12H1.5V18H13.5V12ZM-1.5 15V19.5H4.5V15H-1.5ZM1.5 22.5H13.5V16.5H1.5V22.5ZM25.5 13.5V9H19.5V13.5H25.5ZM22.5 6H1.5V12H22.5V6ZM-1.5 9V13.5H4.5V9H-1.5ZM1.5 16.5H22.5V10.5H1.5V16.5Z" fill="#34A853" fill-opacity="0.8" mask="url(#path-1-inside-1_4002_8981)"/>
</svg>
