<svg width="19" height="20" viewBox="0 0 19 20" fill="none" xmlns="http://www.w3.org/2000/svg">
<mask id="path-1-inside-1_4002_8989" fill="white">
<path d="M7.77273 20V17.6471H4.31818V15.2941H7.77273V12.8235C5.49849 12.549 3.63418 11.8086 2.17982 10.6024C0.725456 9.39608 -0.00115015 7.99922 1.36651e-06 6.41176C1.36651e-06 4.62745 0.928698 3.11294 2.78609 1.86824C4.64349 0.623529 6.88145 0.000784314 9.5 0C12.1197 0 14.3582 0.622745 16.2156 1.86824C18.073 3.11373 19.0012 4.62823 19 6.41176C19 8 18.2728 9.39725 16.8185 10.6035C15.3641 11.8098 13.5004 12.5498 11.2273 12.8235V15.2941H14.6818V17.6471H11.2273V20H7.77273ZM9.5 10.5882C11.1697 10.5882 12.5947 10.1863 13.775 9.38235C14.9553 8.57843 15.5455 7.60784 15.5455 6.47059C15.5455 5.33333 14.9553 4.36275 13.775 3.55882C12.5947 2.7549 11.1697 2.35294 9.5 2.35294C7.8303 2.35294 6.4053 2.7549 5.225 3.55882C4.0447 4.36275 3.45455 5.33333 3.45455 6.47059C3.45455 7.60784 4.0447 8.57843 5.225 9.38235C6.4053 10.1863 7.8303 10.5882 9.5 10.5882Z"/>
</mask>
<path d="M7.77273 20V17.6471H4.31818V15.2941H7.77273V12.8235C5.49849 12.549 3.63418 11.8086 2.17982 10.6024C0.725456 9.39608 -0.00115015 7.99922 1.36651e-06 6.41176C1.36651e-06 4.62745 0.928698 3.11294 2.78609 1.86824C4.64349 0.623529 6.88145 0.000784314 9.5 0C12.1197 0 14.3582 0.622745 16.2156 1.86824C18.073 3.11373 19.0012 4.62823 19 6.41176C19 8 18.2728 9.39725 16.8185 10.6035C15.3641 11.8098 13.5004 12.5498 11.2273 12.8235V15.2941H14.6818V17.6471H11.2273V20H7.77273ZM9.5 10.5882C11.1697 10.5882 12.5947 10.1863 13.775 9.38235C14.9553 8.57843 15.5455 7.60784 15.5455 6.47059C15.5455 5.33333 14.9553 4.36275 13.775 3.55882C12.5947 2.7549 11.1697 2.35294 9.5 2.35294C7.8303 2.35294 6.4053 2.7549 5.225 3.55882C4.0447 4.36275 3.45455 5.33333 3.45455 6.47059C3.45455 7.60784 4.0447 8.57843 5.225 9.38235C6.4053 10.1863 7.8303 10.5882 9.5 10.5882Z" fill="#CB1A8F"/>
<path d="M7.77273 20H3.77273V24H7.77273V20ZM7.77273 17.6471H11.7727V13.6471H7.77273V17.6471ZM4.31818 17.6471H0.318182V21.6471H4.31818V17.6471ZM4.31818 15.2941V11.2941H0.318182V15.2941H4.31818ZM7.77273 15.2941V19.2941H11.7727V15.2941H7.77273ZM7.77273 12.8235H11.7727V9.27731L8.25206 8.85235L7.77273 12.8235ZM1.36651e-06 6.41176L4 6.41467V6.41176H1.36651e-06ZM9.5 0V-4L9.4988 -4L9.5 0ZM19 6.41176L15 6.40918V6.41176H19ZM11.2273 12.8235L10.749 8.85222L7.22727 9.27631V12.8235H11.2273ZM11.2273 15.2941H7.22727V19.2941H11.2273V15.2941ZM14.6818 15.2941H18.6818V11.2941H14.6818V15.2941ZM14.6818 17.6471V21.6471H18.6818V17.6471H14.6818ZM11.2273 17.6471V13.6471H7.22727V17.6471H11.2273ZM11.2273 20V24H15.2273V20H11.2273ZM11.7727 20V17.6471H3.77273V20H11.7727ZM7.77273 13.6471H4.31818V21.6471H7.77273V13.6471ZM8.31818 17.6471V15.2941H0.318182V17.6471H8.31818ZM4.31818 19.2941H7.77273V11.2941H4.31818V19.2941ZM11.7727 15.2941V12.8235H3.77273V15.2941H11.7727ZM8.25206 8.85235C6.57732 8.6502 5.48142 8.14394 4.73344 7.52355L-0.373796 13.6812C1.78694 15.4733 4.41965 16.4478 7.29339 16.7947L8.25206 8.85235ZM4.73344 7.52355C4.00288 6.91761 3.99988 6.58063 4 6.41467L-4 6.40886C-4.00218 9.4178 -2.55196 11.8745 -0.373796 13.6812L4.73344 7.52355ZM4 6.41176C4 6.30288 3.94632 5.90584 5.01287 5.19111L0.559317 -1.45464C-2.08892 0.320044 -4 2.95202 -4 6.41176H4ZM5.01287 5.19111C6.10533 4.459 7.53645 4.00059 9.5012 4L9.4988 -4C6.22646 -3.99902 3.18164 -3.21195 0.559317 -1.45464L5.01287 5.19111ZM9.5 4C11.4655 4 12.8962 4.45843 13.9879 5.19046L18.4434 -1.45399C15.8203 -3.21294 12.7739 -4 9.5 -4V4ZM13.9879 5.19046C15.0553 5.9062 15.0001 6.30266 15 6.40918L23 6.41435C23.0022 2.95381 21.0908 0.321251 18.4434 -1.45399L13.9879 5.19046ZM15 6.41176C15 6.5804 14.9954 6.91878 14.2648 7.52472L19.3721 13.6823C21.5502 11.8757 23 9.4196 23 6.41176H15ZM14.2648 7.52472C13.5169 8.14507 12.4219 8.65078 10.749 8.85222L11.7055 16.7948C14.5789 16.4488 17.2113 15.4745 19.3721 13.6823L14.2648 7.52472ZM7.22727 12.8235V15.2941H15.2273V12.8235H7.22727ZM11.2273 19.2941H14.6818V11.2941H11.2273V19.2941ZM10.6818 15.2941V17.6471H18.6818V15.2941H10.6818ZM14.6818 13.6471H11.2273V21.6471H14.6818V13.6471ZM7.22727 17.6471V20H15.2273V17.6471H7.22727ZM11.2273 16H7.77273V24H11.2273V16ZM9.5 14.5882C11.8336 14.5882 14.076 14.017 16.0268 12.6883L11.5232 6.07636C11.1133 6.35555 10.5058 6.58823 9.5 6.58823V14.5882ZM16.0268 12.6883C17.9855 11.3542 19.5455 9.27177 19.5455 6.47059H11.5455C11.5455 6.40467 11.5546 6.31493 11.5829 6.21384C11.6112 6.11271 11.6502 6.03068 11.685 5.97333C11.7525 5.86235 11.7591 5.91568 11.5232 6.07636L16.0268 12.6883ZM19.5455 6.47059C19.5455 3.66941 17.9855 1.58696 16.0268 0.252832L11.5232 6.86482C11.7591 7.02549 11.7525 7.07883 11.685 6.96785C11.6502 6.9105 11.6112 6.82847 11.5829 6.72734C11.5546 6.62624 11.5455 6.53651 11.5455 6.47059H19.5455ZM16.0268 0.252832C14.076 -1.07583 11.8336 -1.64706 9.5 -1.64706V6.35294C10.5058 6.35294 11.1133 6.58563 11.5232 6.86482L16.0268 0.252832ZM9.5 -1.64706C7.16641 -1.64706 4.92395 -1.07583 2.97324 0.252832L7.47676 6.86482C7.88665 6.58563 8.49419 6.35294 9.5 6.35294V-1.64706ZM2.97324 0.252832C1.01449 1.58697 -0.545454 3.66941 -0.545454 6.47059H7.45455C7.45455 6.53651 7.44538 6.62624 7.41708 6.72734C7.38876 6.82847 7.34983 6.9105 7.31496 6.96784C7.24747 7.07883 7.24085 7.02549 7.47676 6.86482L2.97324 0.252832ZM-0.545454 6.47059C-0.545454 9.27177 1.01449 11.3542 2.97324 12.6883L7.47676 6.07636C7.24085 5.91568 7.24747 5.86235 7.31496 5.97333C7.34983 6.03068 7.38876 6.11271 7.41708 6.21384C7.44538 6.31493 7.45455 6.40467 7.45455 6.47059H-0.545454ZM2.97324 12.6883C4.92395 14.017 7.16641 14.5882 9.5 14.5882V6.58823C8.49419 6.58823 7.88665 6.35555 7.47676 6.07636L2.97324 12.6883Z" fill="#C18787" mask="url(#path-1-inside-1_4002_8989)"/>
</svg>
