<svg width="24" height="24" viewBox="0 0 24 24" fill="none" xmlns="http://www.w3.org/2000/svg">
<path d="M22.5 1.5L14.4 9.6M22.5 1.5H15M22.5 1.5V9M1.5 15C1.5 16.9891 2.29018 18.8968 3.6967 20.3033C5.10322 21.7098 7.01088 22.5 9 22.5C10.9891 22.5 12.8968 21.7098 14.3033 20.3033C15.7098 18.8968 16.5 16.9891 16.5 15C16.5 13.0109 15.7098 11.1032 14.3033 9.6967C12.8968 8.29018 10.9891 7.5 9 7.5C7.01088 7.5 5.10322 8.29018 3.6967 9.6967C2.29018 11.1032 1.5 13.0109 1.5 15Z" stroke="#2C97EB" stroke-width="3" stroke-linecap="round" stroke-linejoin="round"/>
</svg>
