<svg width="24" height="24" viewBox="0 0 24 24" fill="none" xmlns="http://www.w3.org/2000/svg">
<g clip-path="url(#clip0_2128_15097)">
<path d="M12 22.854C12.42 22.8443 12.823 22.6864 13.1378 22.4083C13.4525 22.1301 13.6588 21.7496 13.72 21.334H10.2134C10.2764 21.7609 10.4923 22.1503 10.8209 22.4299C11.1496 22.7095 11.5686 22.8602 12 22.854Z" fill="#666666"/>
<path d="M21.6732 18.5536C21.0303 17.9805 20.4675 17.3235 19.9999 16.6003C19.4888 15.6022 19.1828 14.5118 19.0999 13.3936V10.1003C19.0969 9.70024 19.0612 9.30113 18.9932 8.90693C18.4683 8.80249 17.964 8.61335 17.4999 8.34693C17.6768 8.91685 17.7667 9.51019 17.7665 10.1069V13.4003C17.8474 14.7644 18.2227 16.0949 18.8665 17.3003C19.327 18.0295 19.8731 18.7009 20.4932 19.3003H3.41987C4.04 18.7009 4.58611 18.0295 5.04654 17.3003C5.6904 16.0949 6.06566 14.7644 6.14654 13.4003V10.1003C6.14303 9.32872 6.29174 8.56406 6.58416 7.85007C6.87659 7.13609 7.30697 6.48679 7.85068 5.93937C8.39439 5.39195 9.04074 4.95715 9.75272 4.65987C10.4647 4.36259 11.2283 4.20867 11.9999 4.20693C13.1291 4.20743 14.233 4.5414 15.1732 5.16693C15.0696 4.78624 15.0114 4.39463 14.9999 4.00026V3.58026C14.3037 3.23806 13.5559 3.01283 12.7865 2.91359V2.07359C12.7865 1.83755 12.6928 1.61118 12.5259 1.44427C12.359 1.27736 12.1326 1.18359 11.8965 1.18359C11.6605 1.18359 11.4341 1.27736 11.2672 1.44427C11.1003 1.61118 11.0065 1.83755 11.0065 2.07359V2.94693C9.28368 3.18996 7.70692 4.04809 6.56735 5.36288C5.42778 6.67768 4.80236 8.36035 4.80654 10.1003V13.3936C4.72357 14.5118 4.41756 15.6022 3.90654 16.6003C3.44712 17.3218 2.89333 17.9788 2.25987 18.5536C2.18876 18.6161 2.13176 18.693 2.09268 18.7792C2.0536 18.8654 2.03332 18.9589 2.0332 19.0536V19.9603C2.0332 20.1371 2.10344 20.3066 2.22847 20.4317C2.35349 20.5567 2.52306 20.6269 2.69987 20.6269H21.2332C21.41 20.6269 21.5796 20.5567 21.7046 20.4317C21.8296 20.3066 21.8999 20.1371 21.8999 19.9603V19.0536C21.8997 18.9589 21.8795 18.8654 21.8404 18.7792C21.8013 18.693 21.7443 18.6161 21.6732 18.5536Z" fill="#666666"/>
<path d="M19.9998 7.33268C21.8408 7.33268 23.3332 5.8403 23.3332 3.99935C23.3332 2.1584 21.8408 0.666016 19.9998 0.666016C18.1589 0.666016 16.6665 2.1584 16.6665 3.99935C16.6665 5.8403 18.1589 7.33268 19.9998 7.33268Z" fill="#E34D4D"/>
</g>
<defs>
<clipPath id="clip0_2128_15097">
<rect width="24" height="24" fill="white"/>
</clipPath>
</defs>
</svg>
